<?xml version="1.0" encoding="UTF-8" standalone="no"?>
<svg
   xmlns:dc="http://purl.org/dc/elements/1.1/"
   xmlns:cc="http://creativecommons.org/ns#"
   xmlns:rdf="http://www.w3.org/1999/02/22-rdf-syntax-ns#"
   xmlns:svg="http://www.w3.org/2000/svg"
   xmlns="http://www.w3.org/2000/svg"
   style="shape-rendering:crispEdges"
   viewBox="0 0 610.11316 608.96729"
   height="608.96729"
   width="610.11316"
   id="svg61"
   version="1.1">
  <metadata
     id="metadata67">
    <rdf:RDF>
      <cc:Work
         rdf:about="">
        <dc:format>image/svg+xml</dc:format>
        <dc:type
           rdf:resource="http://purl.org/dc/dcmitype/StillImage" />
        <dc:title></dc:title>
      </cc:Work>
    </rdf:RDF>
  </metadata>
  <defs
     id="defs65" />
  <path
     id="path110"
     d="M 125.36898,0.50000028 C 94.780947,0.90774428 64.108657,-0.23476372 33.574057,1.7050783 13.685987,6.3398693 -1.0948908,26.559797 1.0272752,46.995973 -0.01179782,193.91238 0.78756918,340.83667 0.89062118,487.75583 c 0.45774402,29.83316 -0.572845,59.75383 1.39437602,89.52932 4.823524,15.87743 19.5266398,28.42331 35.7187498,31.18209 179.680623,-0.14178 359.364173,-0.25658 539.042973,-0.41256 13.62153,-4.99782 25.24181,-15.22862 30.54369,-28.90029 3.37828,-7.02541 0.63558,-15.48125 1.53206,-23.08603 0.16329,-173.21802 0.33588,-346.43668 0.49066,-519.654297 C 606.14275,21.391414 595.44805,8.3944383 581.01519,2.7548043 573.43667,-1.2528477 564.26515,1.8162623 556.00376,0.84518028 412.45885,0.73267228 268.91394,0.51223528 125.36898,0.50000028 Z M 136.40609,84.658203 c 27.371,-0.440498 52.36114,23.954377 51.78805,51.490147 0.79382,27.15851 -23.10574,51.94658 -50.27437,52.14266 -15.66147,0.60672 -31.16897,-6.34436 -40.990243,-18.61328 -17.25248,-18.58036 -16.02697,-50.18152 1.65625,-68.09766 C 108.18978,91.073628 122.1137,84.571659 136.40609,84.658203 Z M 415.94125,221.99609 c 29.10664,-0.32001 60.49464,8.96058 78.77344,32.95117 15.29621,20.16764 21.21183,46.00944 22.91805,70.85898 2.96967,58.52362 1.31017,117.16451 1.7714,175.73868 -1.19457,5.07887 2.47916,15.02603 -2,16.82031 -29.26693,0 -58.53385,0 -87.80078,0 -0.32401,-56.64179 0.79664,-113.32138 -1.03516,-169.9375 -1.60403,-16.96134 -7.74375,-36.00767 -24.19336,-43.99609 -12.9244,-5.18676 -27.76821,-4.87564 -41.15234,-1.59961 -17.21952,4.35324 -28.02402,20.69536 -32.0332,37.10742 -3.63763,16.04896 -1.59617,32.78721 -2.35785,49.11517 -0.21591,43.10333 -0.33844,86.20709 -0.51129,129.31061 -29.90756,0 -59.81511,0 -89.72266,0 0.1676,-96.43359 0.33622,-192.86719 0.50586,-289.30078 28.4336,-0.17281 56.86719,-0.34664 85.30078,-0.52149 0.49413,13.26611 -1.03491,26.97356 1.0293,40.01368 5.78711,-5.72349 9.32926,-13.78479 15.8232,-19.0907 19.33862,-18.31831 46.01028,-28.90048 72.75102,-27.48548 l 0.99996,0.008 z M 181.40414,373.45507 c 0,48.30339 0,96.60678 0,144.91016 -29.93555,0 -59.87109,0 -89.806643,0 0.1676,-96.43359 0.33622,-192.86719 0.50586,-289.30078 29.766933,-0.17281 59.533863,-0.34664 89.300783,-0.52149 0,48.30404 0,96.60808 0,144.91211 z"
     style="fill:#ffffff;stroke:#ffffff" />
</svg>
