<?xml version="1.0" encoding="UTF-8" standalone="no"?>
<!-- Created with Inkscape (http://www.inkscape.org/) -->

<svg
   xmlns:dc="http://purl.org/dc/elements/1.1/"
   xmlns:cc="http://creativecommons.org/ns#"
   xmlns:rdf="http://www.w3.org/1999/02/22-rdf-syntax-ns#"
   xmlns:svg="http://www.w3.org/2000/svg"
   xmlns="http://www.w3.org/2000/svg"
   xmlns:sodipodi="http://sodipodi.sourceforge.net/DTD/sodipodi-0.dtd"
   xmlns:inkscape="http://www.inkscape.org/namespaces/inkscape"
   version="1.1"
   id="svg10"
   width="683"
   height="683"
   viewBox="0 0 683 683"
   sodipodi:docname="profile-white.svg"
   inkscape:version="0.92.3 (unknown)"
   inkscape:export-filename="/home/joe/profile-white.png"
   inkscape:export-xdpi="96"
   inkscape:export-ydpi="96"
   style="shape-rendering:crispEdges">
  <metadata
     id="metadata16">
    <rdf:RDF>
      <cc:Work
         rdf:about="">
        <dc:format>image/svg+xml</dc:format>
        <dc:type
           rdf:resource="http://purl.org/dc/dcmitype/StillImage" />
        <dc:title></dc:title>
      </cc:Work>
    </rdf:RDF>
  </metadata>
  <defs
     id="defs14" />
  <sodipodi:namedview
     pagecolor="#ffffff"
     bordercolor="#666666"
     borderopacity="1"
     objecttolerance="10"
     gridtolerance="10"
     guidetolerance="10"
     inkscape:pageopacity="0"
     inkscape:pageshadow="2"
     inkscape:window-width="1535"
     inkscape:window-height="876"
     id="namedview12"
     showgrid="false"
     inkscape:pagecheckerboard="true"
     inkscape:showpageshadow="false"
     inkscape:zoom="1.0746706"
     inkscape:cx="341.5"
     inkscape:cy="341.50001"
     inkscape:window-x="65"
     inkscape:window-y="24"
     inkscape:window-maximized="1"
     inkscape:current-layer="svg10"
     fit-margin-top="0"
     fit-margin-left="0"
     fit-margin-right="0"
     fit-margin-bottom="0" />
  <path
     style="fill:#ffffff;stroke-width:0.9302702"
     d="M 338.50131,0.05778944 C 302.4437,0.03728944 266.36122,6.1450594 232.23488,17.718999 198.6306,29.161979 167.01184,45.909919 138.33365,66.793599 112.71194,85.697109 89.914505,108.46178 70.369626,133.56813 26.071045,191.76733 0.061886,264.17048 0.06189966,337.51922 -1.2034807,402.5014 16.96365,467.62048 51.629055,522.57773 c 15.474205,25.2651 34.695027,48.09715 56.309025,68.32555 31.05719,29.96457 68.45552,53.04966 108.49757,68.96923 24.80484,10.57521 51.41472,16.02975 77.8621,20.66425 26.12501,3.40311 52.61907,2.57709 78.88142,1.64532 84.12092,-7.27964 164.66584,-47.69188 221.29375,-110.25046 32.96568,-36.04281 57.88582,-79.40573 72.99927,-125.8324 10.82607,-34.41718 16.70182,-70.52255 15.33146,-106.65732 0.017,-20.54183 -0.62925,-41.16097 -5.05101,-61.29463 C 664.54726,208.61084 629.49203,143.12312 577.76171,94.647219 541.39326,59.101959 496.38708,32.717789 448.22013,16.675459 412.84775,5.1845494 375.71664,-0.65150056 338.50131,0.05778944 Z M 347.61998,104.02858 c 24.79098,-0.51964 48.56641,10.82782 67.38266,26.32338 29.89354,25.32134 44.31776,66.97924 36.84146,105.39551 -8.09904,50.43055 -55.34033,91.05104 -106.42218,91.50222 -31.94228,1.40867 -63.8629,-11.90099 -85.51956,-35.39263 -20.78562,-21.82546 -31.86058,-52.29389 -29.84015,-82.40349 0.90885,-30.19894 15.76803,-59.55623 38.58555,-79.16337 19.37266,-15.60899 43.47678,-27.60367 68.94331,-26.24345 3.34294,-0.0205 6.68593,-0.0321 10.02891,-0.0184 z m 22.51417,279.97066 c 21.15829,0.65193 42.70707,-1.36362 63.56733,2.88364 12.4895,3.49012 24.97826,8.21411 35.80248,15.27401 23.35807,15.33914 40.71386,39.39345 47.82843,66.46369 3.36549,12.13157 4.04892,25.18956 2.4633,37.66154 -3.26586,19.81581 -21.20113,32.10074 -36.49049,42.79569 -23.87926,15.80503 -49.85659,28.8939 -77.80168,35.66952 -70.4933,19.06795 -148.93574,4.82123 -208.35957,-37.58078 -15.36451,-10.60786 -32.44605,-24.25792 -34.19583,-44.27685 -2.06698,-26.04968 6.27079,-52.70482 21.80974,-73.49074 16.64846,-21.73485 40.86173,-37.48902 67.75637,-42.96365 18.84762,-3.80501 38.3095,-1.74583 57.41737,-2.41797 20.06749,-0.0383 40.13505,-0.0211 60.20255,-0.0184 z"
     id="path32"
     inkscape:connector-curvature="0"
     inkscape:export-xdpi="96"
     inkscape:export-ydpi="96" />
</svg>
